<svg xmlns="http://www.w3.org/2000/svg" xmlns:xlink="http://www.w3.org/1999/xlink" width="200" zoomAndPan="magnify" viewBox="0 0 150 149.999998" height="200" preserveAspectRatio="xMidYMid meet" version="1.0"><defs><clipPath id="624522a946"><path d="M 17.921875 18.476562 L 131.578125 18.476562 L 131.578125 132.132812 L 17.921875 132.132812 Z M 17.921875 18.476562 " clip-rule="nonzero"/></clipPath><clipPath id="501cb9988d"><path d="M 74.75 18.476562 C 43.363281 18.476562 17.921875 43.921875 17.921875 75.304688 C 17.921875 106.691406 43.363281 132.132812 74.75 132.132812 C 106.136719 132.132812 131.578125 106.691406 131.578125 75.304688 C 131.578125 43.921875 106.136719 18.476562 74.75 18.476562 Z M 74.75 18.476562 " clip-rule="nonzero"/></clipPath><clipPath id="5c023b23fb"><path d="M 20.335938 20.890625 L 129.324219 20.890625 L 129.324219 129.878906 L 20.335938 129.878906 Z M 20.335938 20.890625 " clip-rule="nonzero"/></clipPath><clipPath id="b792b9dc4c"><path d="M 74.828125 20.890625 C 44.734375 20.890625 20.335938 45.289062 20.335938 75.386719 C 20.335938 105.480469 44.734375 129.878906 74.828125 129.878906 C 104.925781 129.878906 129.324219 105.480469 129.324219 75.386719 C 129.324219 45.289062 104.925781 20.890625 74.828125 20.890625 Z M 74.828125 20.890625 " clip-rule="nonzero"/></clipPath><clipPath id="ca9034966e"><path d="M 24.789062 25.347656 L 124.660156 25.347656 L 124.660156 125.214844 L 24.789062 125.214844 Z M 24.789062 25.347656 " clip-rule="nonzero"/></clipPath><clipPath id="682d97c276"><path d="M 74.75 25.347656 C 47.15625 25.347656 24.789062 47.714844 24.789062 75.304688 C 24.789062 102.898438 47.15625 125.265625 74.75 125.265625 C 102.34375 125.265625 124.710938 102.898438 124.710938 75.304688 C 124.710938 47.714844 102.34375 25.347656 74.75 25.347656 Z M 74.75 25.347656 " clip-rule="nonzero"/></clipPath><clipPath id="0ed20706ee"><path d="M 22.5625 23.121094 L 127.09375 23.121094 L 127.09375 127.648438 L 22.5625 127.648438 Z M 22.5625 23.121094 " clip-rule="nonzero"/></clipPath><clipPath id="a88861cb13"><path d="M 74.828125 23.121094 C 45.964844 23.121094 22.5625 46.519531 22.5625 75.386719 C 22.5625 104.25 45.964844 127.648438 74.828125 127.648438 C 103.695312 127.648438 127.09375 104.25 127.09375 75.386719 C 127.09375 46.519531 103.695312 23.121094 74.828125 23.121094 Z M 74.828125 23.121094 " clip-rule="nonzero"/></clipPath></defs><g clip-path="url(#624522a946)"><g clip-path="url(#501cb9988d)"><path stroke-linecap="butt" transform="matrix(0.179947, 0, 0, 0.179947, 17.922248, 18.478406)" fill="none" stroke-linejoin="miter" d="M 315.802614 -0.0102454 C 141.380655 -0.0102454 -0.00207352 141.394191 -0.00207352 315.794442 C -0.00207352 490.216401 141.380655 631.599129 315.802614 631.599129 C 490.224573 631.599129 631.607301 490.216401 631.607301 315.794442 C 631.607301 141.394191 490.224573 -0.0102454 315.802614 -0.0102454 Z M 315.802614 -0.0102454 " stroke="#ff0000" stroke-width="28.274403" stroke-opacity="1" stroke-miterlimit="4"/></g></g><g clip-path="url(#5c023b23fb)"><g clip-path="url(#b792b9dc4c)"><path stroke-linecap="butt" transform="matrix(0.179947, 0, 0, 0.179947, 20.334954, 20.891112)" fill="none" stroke-linejoin="miter" d="M 302.828907 -0.00270403 C 135.59222 -0.00270403 0.00546781 135.584049 0.00546781 302.842443 C 0.00546781 470.079129 135.59222 605.665882 302.828907 605.665882 C 470.087301 605.665882 605.674053 470.079129 605.674053 302.842443 C 605.674053 135.584049 470.087301 -0.00270403 302.828907 -0.00270403 Z M 302.828907 -0.00270403 " stroke="#ffcf00" stroke-width="28.274403" stroke-opacity="1" stroke-miterlimit="4"/></g></g><g clip-path="url(#ca9034966e)"><g clip-path="url(#682d97c276)"><path stroke-linecap="butt" transform="matrix(0.179947, 0, 0, 0.179947, 24.789598, 25.34576)" fill="none" stroke-linejoin="miter" d="M 277.639445 0.0105394 C 124.295734 0.0105394 -0.00297656 124.30925 -0.00297656 277.631253 C -0.00297656 430.974965 124.295734 555.273675 277.639445 555.273675 C 430.983156 555.273675 555.281867 430.974965 555.281867 277.631253 C 555.281867 124.30925 430.983156 0.0105394 277.639445 0.0105394 Z M 277.639445 0.0105394 " stroke="#004aad" stroke-width="28.274403" stroke-opacity="1" stroke-miterlimit="4"/></g></g><g clip-path="url(#0ed20706ee)"><g clip-path="url(#a88861cb13)"><path stroke-linecap="butt" transform="matrix(0.179947, 0, 0, 0.179947, 22.564173, 23.120333)" fill="none" stroke-linejoin="miter" d="M 290.440712 0.00422913 C 130.041974 0.00422913 -0.00929614 130.033792 -0.00929614 290.454237 C -0.00929614 450.852975 130.041974 580.882537 290.440712 580.882537 C 450.861157 580.882537 580.89072 450.852975 580.89072 290.454237 C 580.89072 130.033792 450.861157 0.00422913 290.440712 0.00422913 Z M 290.440712 0.00422913 " stroke="#48a422" stroke-width="28.274403" stroke-opacity="1" stroke-miterlimit="4"/></g></g></svg>